<svg width="50" height="50" viewBox="0 0 50 50" fill="none" xmlns="http://www.w3.org/2000/svg">
<path d="M45 1H5C2.8 1 1 2.8 1 5V45C1 47.2 2.8 49 5 49H45C47.2 49 49 47.2 49 45V5C49 2.8 47.2 1 45 1Z" fill="white"/>
<path d="M20.2999 10.5C16.5999 11.8 13.3999 14.6 11.5999 18.1C10.9999 19.3 10.4999 20.6 10.2999 22C9.59993 25.3 10.0999 28.9 11.5999 31.9C12.5999 33.9 13.9999 35.6 15.7999 37C17.3999 38.3 19.2999 39.3 21.3999 39.8C23.9999 40.5 26.6999 40.5 29.1999 39.9C31.4999 39.4 33.6999 38.3 35.4999 36.6C37.3999 34.9 38.6999 32.7 39.3999 30.2C40.1999 27.6 40.2999 24.8 39.7999 22.1C34.9999 22.1 30.1999 22.1 25.3999 22.1V28.1H33.6999C33.3999 30 32.1999 31.8 30.5999 32.8C29.5999 33.5 28.3999 33.9 27.1999 34.1C25.9999 34.3 24.6999 34.3 23.4999 34.1C22.2999 33.9 21.0999 33.3 20.0999 32.6C18.4999 31.5 17.1999 29.8 16.5999 27.9C15.8999 26 15.8999 23.9 16.5999 21.9C17.0999 20.6 17.7999 19.3 18.7999 18.3C19.9999 17 21.5999 16.1 23.3999 15.8C24.8999 15.5 26.3999 15.5 27.8999 16C29.0999 16.4 30.2999 17.1 31.1999 17.9C32.0999 17 33.0999 16 33.9999 15.1C34.4999 14.6 34.9999 14.1 35.4999 13.6C34.0999 12.3 32.3999 11.2 30.5999 10.5C27.2999 9.39999 23.5999 9.39999 20.2999 10.5Z" fill="white"/>
<path d="M20.2999 10.5C23.5999 9.39998 27.2999 9.39998 30.5999 10.6C32.3999 11.3 34.0999 12.3 35.4999 13.7C34.9999 14.2 34.4999 14.7 33.9999 15.2C33.0999 16.1 32.0999 17.1 31.1999 18C30.2999 17.1 29.0999 16.4 27.8999 16.1C26.4999 15.7 24.8999 15.6 23.3999 15.9C21.6999 16.3 20.0999 17.2 18.7999 18.4C17.7999 19.4 16.9999 20.7 16.5999 22C14.8999 20.7 13.2999 19.4 11.5999 18.1C13.3999 14.6 16.5999 11.8 20.2999 10.5Z" fill="#EA4335"/>
<path d="M10.2999 22C10.5999 20.7 10.9999 19.4 11.5999 18.1C13.2999 19.4 14.8999 20.7 16.5999 22C15.8999 23.9 15.8999 26 16.5999 28C14.8999 29.3 13.2999 30.6 11.5999 31.9C10.0999 28.8 9.59993 25.3 10.2999 22Z" fill="#FBBC05"/>
<path d="M25.2999 22.1H39.6999C40.1999 24.8 40.0999 27.6 39.2999 30.2C38.5999 32.6 37.2999 34.8 35.3999 36.6C33.7999 35.3 32.1999 34.1 30.4999 32.8C32.0999 31.7 33.1999 30 33.5999 28.1C30.7999 28.1 27.9999 28.1 25.2999 28.1C25.2999 26.1 25.2999 24.1 25.2999 22.1Z" fill="#4285F4"/>
<path d="M11.5999 31.9C13.2999 30.6 14.8999 29.3 16.5999 28C17.1999 29.9 18.4999 31.6 20.0999 32.7C21.0999 33.4 22.2999 33.9 23.4999 34.2C24.6999 34.4 25.8999 34.4 27.1999 34.2C28.3999 34 29.5999 33.5 30.5999 32.9C32.1999 34.2 33.7999 35.4 35.4999 36.7C33.6999 38.3 31.5999 39.4 29.1999 40C26.5999 40.6 23.8999 40.6 21.3999 39.9C19.3999 39.4 17.4999 38.4 15.7999 37.1C14.0999 35.6 12.5999 33.8 11.5999 31.9Z" fill="#34A853"/>
</svg>
