<svg width="2165" height="2165" viewBox="0 0 2165 2165" fill="none" xmlns="http://www.w3.org/2000/svg">
<g clip-path="url(#clip0_6004_18)">
<path d="M1082.5 0C484.649 0 0 484.649 0 1082.5C0 1680.35 484.649 2165 1082.5 2165C1680.35 2165 2165 1680.35 2165 1082.5C2165 484.649 1680.35 0 1082.5 0ZM1439.08 1678.63C1439.08 1722.54 1404.29 1758.13 1360.37 1758.13C1316.44 1758.13 1281.65 1722.54 1281.65 1678.63V954.293C1281.65 954.293 1281.7 911.254 1223.67 911.254C1165.64 911.254 1168.48 954.293 1168.48 954.293V1368.62C1168.48 1412.52 1132.7 1448.1 1088.79 1448.1C1044.88 1448.1 1009.1 1412.52 1009.1 1368.62V1194.98C1009.1 1194.98 1014.37 1146.9 947.057 1146.9C879.747 1146.9 883.533 1194.98 883.533 1194.98V1829.67C883.533 1873.58 847.429 1909.16 803.52 1909.16C759.611 1909.16 723.507 1873.58 723.507 1829.67V1194.98C723.507 1194.98 725.536 1153.35 666.912 1153.35C608.287 1153.35 611.615 1194.98 611.615 1194.98V1289.12C611.615 1333.03 576.827 1368.61 532.901 1368.61C488.975 1368.61 454.186 1333.03 454.186 1289.12V748.577C454.186 704.68 488.975 669.086 532.901 669.086C576.827 669.086 611.615 704.68 611.615 748.577V1034.96C611.615 1034.96 606.496 1080.49 668.216 1080.49C729.937 1080.49 723.507 1034.96 723.507 1034.96V335.221C723.507 291.324 759.617 255.73 803.52 255.73C847.423 255.73 883.533 291.324 883.533 335.221V1034.96C883.533 1034.96 881.649 1079.2 947.938 1079.2C1014.23 1079.2 1009.08 1034.96 1009.08 1034.96V704.86C1009.08 660.957 1044.87 625.368 1088.78 625.368C1132.69 625.368 1168.47 660.957 1168.47 704.86V797.513C1168.47 797.513 1171.45 845.399 1225.12 845.399C1278.78 845.399 1281.66 797.513 1281.66 797.513V498.182C1281.66 454.279 1316.45 418.69 1360.37 418.69C1404.3 418.69 1439.08 454.279 1439.08 498.182V1678.63ZM1711.01 1503.12C1711.01 1547.02 1674.58 1582.61 1630.67 1582.61C1586.76 1582.61 1550.33 1547.02 1550.33 1503.12V1431.57C1550.33 1387.68 1586.76 1352.08 1630.67 1352.08C1674.58 1352.08 1711.01 1387.68 1711.01 1431.57V1503.12ZM1711.01 1209C1711.01 1252.9 1674.58 1288.49 1630.67 1288.49C1586.76 1288.49 1550.33 1252.9 1550.33 1209V795.64C1550.33 751.737 1586.76 716.149 1630.67 716.149C1674.58 716.149 1711.01 751.737 1711.01 795.64V1209Z" fill="white"/>
</g>
<defs>
<clipPath id="clip0_6004_18">
<rect width="2165" height="2165" fill="white"/>
</clipPath>
</defs>
</svg>
